<svg version="1.1" id="Layer_1" xmlns="http://www.w3.org/2000/svg" xmlns:xlink="http://www.w3.org/1999/xlink" x="0px" y="0px"
	 width="100%" viewBox="0 0 200 200" enable-background="new 0 0 200 200" xml:space="preserve">
<path fill="#FDFDFD" opacity="1.000000" stroke="none" 
	d="
M117.000000,201.000000 
	C78.024071,201.000000 39.548149,201.000000 1.036112,201.000000 
	C1.036112,134.399109 1.036112,67.798203 1.036112,1.098643 
	C67.559090,1.098643 134.118378,1.098643 200.838837,1.098643 
	C200.838837,67.666351 200.838837,134.333145 200.838837,201.000000 
	C173.131821,201.000000 145.315903,201.000000 117.000000,201.000000 
M111.443825,125.376854 
	C108.759727,123.889114 105.590714,122.895653 103.479271,120.824203 
	C96.115372,113.599808 88.925743,106.174843 82.026344,98.505432 
	C72.364471,87.765236 59.985138,84.174438 46.167606,84.052650 
	C26.124657,83.875977 17.688274,90.759209 13.769487,110.319603 
	C13.475748,111.785789 13.026066,113.253777 12.979086,114.731430 
	C12.175743,139.998627 11.402047,165.266830 10.683969,190.536591 
	C10.564363,194.745667 12.944893,196.365692 17.015963,196.350403 
	C35.167679,196.282303 53.320068,196.266647 71.471558,196.359772 
	C75.785980,196.381912 77.861664,194.695908 78.127121,190.273056 
	C78.635544,181.802063 79.459023,173.350327 80.110695,164.887451 
	C80.654510,157.825272 81.139679,150.758575 81.563744,144.897400 
	C88.668724,148.348923 95.385422,153.235886 102.824097,154.904724 
	C121.220062,159.031769 139.620209,155.863312 157.596558,151.343628 
	C166.603989,149.078964 170.356918,138.707504 166.255936,130.330826 
	C162.673615,123.013573 156.315506,120.755333 146.931595,122.062386 
	C135.444992,123.662315 123.839180,124.406258 111.443825,125.376854 
M80.894447,24.739334 
	C79.823387,23.057690 78.858635,21.296150 77.664421,19.707050 
	C68.181343,7.088218 51.213047,2.596259 36.504032,8.760653 
	C21.993555,14.841841 13.019770,30.375971 15.505422,45.347778 
	C17.936893,59.993240 26.126642,69.975845 40.454742,74.089516 
	C54.356640,78.080811 66.656204,74.484573 76.110519,63.565689 
	C85.973763,52.174530 87.450890,39.207001 80.894447,24.739334 
M114.974434,51.564171 
	C112.813850,53.076557 110.836945,55.325249 108.447762,55.921257 
	C105.215118,56.727676 100.569405,55.242397 100.326294,60.218266 
	C100.081558,65.227257 104.901047,64.357658 108.444389,65.005135 
	C110.318939,76.696228 112.348923,88.305527 113.970741,99.971558 
	C114.651665,104.869591 116.749458,106.827972 121.781212,106.757004 
	C137.277176,106.538475 152.778183,106.678101 168.277222,106.677086 
	C176.477524,106.676552 176.782364,106.302536 178.008347,98.249840 
	C179.702866,87.119423 181.575775,76.016159 183.340790,65.096138 
	C184.126312,64.884605 184.444427,64.725502 184.763077,64.724449 
	C188.097412,64.713440 191.684113,64.489372 191.439133,60.061440 
	C191.216782,56.042290 187.765503,55.777588 184.641525,56.149170 
	C181.597717,56.511219 179.793991,55.199932 178.022736,52.877243 
	C174.288055,47.979877 170.207397,43.347935 166.344131,38.546398 
	C164.476471,36.225163 162.331253,34.635647 159.596664,36.777569 
	C156.630753,39.100666 157.758774,41.663208 159.811829,44.107895 
	C162.953995,47.849468 166.003876,51.668530 169.316772,55.729046 
	C153.465027,55.729046 138.314819,55.729046 122.586960,55.729046 
	C126.161240,51.382298 129.325867,47.550308 132.471191,43.702518 
	C134.391891,41.352844 135.235626,38.467022 132.250061,36.930355 
	C130.751038,36.158810 127.347923,37.038250 126.016937,38.375980 
	C122.157684,42.254776 118.911224,46.743279 114.974434,51.564171 
z"/>
<path fill="#010101" opacity="1.000000" stroke="none" 
	d="
M111.864365,125.448578 
	C123.839180,124.406258 135.444992,123.662315 146.931595,122.062386 
	C156.315506,120.755333 162.673615,123.013573 166.255936,130.330826 
	C170.356918,138.707504 166.603989,149.078964 157.596558,151.343628 
	C139.620209,155.863312 121.220062,159.031769 102.824097,154.904724 
	C95.385422,153.235886 88.668724,148.348923 81.563744,144.897400 
	C81.139679,150.758575 80.654510,157.825272 80.110695,164.887451 
	C79.459023,173.350327 78.635544,181.802063 78.127121,190.273056 
	C77.861664,194.695908 75.785980,196.381912 71.471558,196.359772 
	C53.320068,196.266647 35.167679,196.282303 17.015963,196.350403 
	C12.944893,196.365692 10.564363,194.745667 10.683969,190.536591 
	C11.402047,165.266830 12.175743,139.998627 12.979086,114.731430 
	C13.026066,113.253777 13.475748,111.785789 13.769487,110.319603 
	C17.688274,90.759209 26.124657,83.875977 46.167606,84.052650 
	C59.985138,84.174438 72.364471,87.765236 82.026344,98.505432 
	C88.925743,106.174843 96.115372,113.599808 103.479271,120.824203 
	C105.590714,122.895653 108.759727,123.889114 111.864365,125.448578 
z"/>
<path fill="#020202" opacity="1.000000" stroke="none" 
	d="
M81.035019,25.089241 
	C87.450890,39.207001 85.973763,52.174530 76.110519,63.565689 
	C66.656204,74.484573 54.356640,78.080811 40.454742,74.089516 
	C26.126642,69.975845 17.936893,59.993240 15.505422,45.347778 
	C13.019770,30.375971 21.993555,14.841841 36.504032,8.760653 
	C51.213047,2.596259 68.181343,7.088218 77.664421,19.707050 
	C78.858635,21.296150 79.823387,23.057690 81.035019,25.089241 
z"/>
<path fill="#060606" opacity="1.000000" stroke="none" 
	d="
M115.199364,51.278351 
	C118.911224,46.743279 122.157684,42.254776 126.016937,38.375980 
	C127.347923,37.038250 130.751038,36.158810 132.250061,36.930355 
	C135.235626,38.467022 134.391891,41.352844 132.471191,43.702518 
	C129.325867,47.550308 126.161240,51.382298 122.586960,55.729046 
	C138.314819,55.729046 153.465027,55.729046 169.316772,55.729046 
	C166.003876,51.668530 162.953995,47.849468 159.811829,44.107895 
	C157.758774,41.663208 156.630753,39.100666 159.596664,36.777569 
	C162.331253,34.635647 164.476471,36.225163 166.344131,38.546398 
	C170.207397,43.347935 174.288055,47.979877 178.022736,52.877243 
	C179.793991,55.199932 181.597717,56.511219 184.641525,56.149170 
	C187.765503,55.777588 191.216782,56.042290 191.439133,60.061440 
	C191.684113,64.489372 188.097412,64.713440 184.763077,64.724449 
	C184.444427,64.725502 184.126312,64.884605 183.340790,65.096138 
	C181.575775,76.016159 179.702866,87.119423 178.008347,98.249840 
	C176.782364,106.302536 176.477524,106.676552 168.277222,106.677086 
	C152.778183,106.678101 137.277176,106.538475 121.781212,106.757004 
	C116.749458,106.827972 114.651665,104.869591 113.970741,99.971558 
	C112.348923,88.305527 110.318939,76.696228 108.444389,65.005135 
	C104.901047,64.357658 100.081558,65.227257 100.326294,60.218266 
	C100.569405,55.242397 105.215118,56.727676 108.447762,55.921257 
	C110.836945,55.325249 112.813850,53.076557 115.199364,51.278351 
M148.603638,92.697754 
	C149.105713,86.531578 149.901260,80.365753 149.908585,74.198990 
	C149.910477,72.608154 147.629059,69.938843 146.056641,69.656296 
	C143.194427,69.141991 141.792465,71.400414 141.853088,74.418999 
	C141.946457,79.069641 141.852966,83.723724 141.884262,88.376045 
	C141.911545,92.432388 143.805252,94.165932 148.603638,92.697754 
M124.003761,74.124939 
	C124.003273,78.765884 124.069717,83.408150 123.978920,88.047325 
	C123.917755,91.172356 125.099701,93.469383 128.345322,93.459686 
	C131.405350,93.450546 132.373428,91.134476 132.329834,88.274292 
	C132.261627,83.800140 132.637314,79.288971 132.158401,74.865654 
	C131.956497,73.000740 130.058472,71.319458 128.931427,69.554695 
	C127.296860,70.792847 125.662300,72.030998 124.003761,74.124939 
M167.735123,90.829536 
	C167.822037,85.366173 168.263855,79.872070 167.794769,74.456879 
	C167.639938,72.669525 165.323380,69.939102 163.659973,69.663498 
	C160.779236,69.186211 159.604507,71.742500 159.650024,74.635696 
	C159.720428,79.111542 159.452515,83.604935 159.775665,88.058411 
	C159.900436,89.777901 160.854187,92.201614 162.154114,92.847374 
	C163.352676,93.442795 165.521179,92.085732 167.735123,90.829536 
z"/>
<path fill="#F9F9F9" opacity="1.000000" stroke="none" 
	d="
M148.246033,92.871094 
	C143.805252,94.165932 141.911545,92.432388 141.884262,88.376045 
	C141.852966,83.723724 141.946457,79.069641 141.853088,74.418999 
	C141.792465,71.400414 143.194427,69.141991 146.056641,69.656296 
	C147.629059,69.938843 149.910477,72.608154 149.908585,74.198990 
	C149.901260,80.365753 149.105713,86.531578 148.246033,92.871094 
z"/>
<path fill="#FAFAFA" opacity="1.000000" stroke="none" 
	d="
M124.015747,73.697037 
	C125.662300,72.030998 127.296860,70.792847 128.931427,69.554703 
	C130.058472,71.319458 131.956497,73.000740 132.158401,74.865654 
	C132.637314,79.288971 132.261627,83.800140 132.329834,88.274292 
	C132.373428,91.134476 131.405350,93.450546 128.345322,93.459686 
	C125.099701,93.469383 123.917755,91.172356 123.978920,88.047325 
	C124.069717,83.408150 124.003273,78.765884 124.015747,73.697037 
z"/>
<path fill="#FAFAFA" opacity="1.000000" stroke="none" 
	d="
M167.498779,91.209106 
	C165.521179,92.085732 163.352676,93.442795 162.154114,92.847374 
	C160.854187,92.201614 159.900436,89.777901 159.775665,88.058411 
	C159.452515,83.604935 159.720428,79.111542 159.650024,74.635696 
	C159.604507,71.742500 160.779236,69.186211 163.659973,69.663498 
	C165.323380,69.939102 167.639938,72.669525 167.794769,74.456879 
	C168.263855,79.872070 167.822037,85.366173 167.498779,91.209106 
z"/>
</svg>