<svg version="1.1" id="Layer_1" xmlns="http://www.w3.org/2000/svg" xmlns:xlink="http://www.w3.org/1999/xlink" x="0px" y="0px"
	 width="100%" viewBox="0 0 130 130" enable-background="new 0 0 130 130" xml:space="preserve">
<path fill="#FBFBFB" opacity="1.000000" stroke="none" 
	d="
M131.000000,65.000000 
	C131.000000,86.963203 131.000000,108.926414 131.000000,130.944809 
	C87.776001,130.944809 44.551914,130.944809 1.000000,130.944809 
	C1.000000,109.313538 1.000000,87.625427 1.292337,65.458633 
	C1.779127,64.965271 1.973579,64.950592 2.513321,64.973373 
	C16.972818,73.136696 31.087025,81.262558 45.423687,89.516487 
	C51.310333,83.065361 57.095455,76.725494 63.231548,70.000992 
	C49.757690,62.808586 36.658741,55.816307 23.006775,48.528820 
	C37.180836,40.718567 50.690838,33.234287 64.270790,25.879183 
	C65.198647,25.376646 66.883919,25.412500 67.824219,25.922310 
	C81.398552,33.282017 94.905556,40.765896 109.004890,48.537605 
	C95.352226,55.871502 82.236137,62.917175 68.869385,70.097496 
	C75.152184,76.708275 81.068260,82.933182 86.840752,89.007019 
	C101.873428,80.834557 116.436714,72.917274 131.000000,65.000000 
M106.910385,84.372643 
	C99.959587,88.216026 93.008781,92.059410 85.813477,96.037987 
	C80.325027,90.255501 74.947456,84.589844 69.187042,78.520828 
	C69.187042,94.514839 69.187042,109.652534 69.187042,125.254227 
	C83.946609,117.368935 98.271393,109.749329 112.536987,102.020447 
	C113.502708,101.497238 114.620415,100.170395 114.652107,99.184654 
	C114.847038,93.121803 114.749855,87.049561 114.749855,80.185989 
	C111.864685,81.730873 109.722244,82.878052 106.910385,84.372643 
M25.881317,105.572266 
	C38.146492,112.093491 50.411667,118.614716 62.736694,125.167763 
	C62.736694,109.526070 62.736694,94.381744 62.736694,78.770721 
	C57.072865,84.978699 51.829838,90.725433 46.523533,96.541527 
	C36.764771,90.945915 27.307802,85.523346 17.251019,79.756844 
	C17.251019,84.286804 17.716276,88.123985 17.150948,91.802788 
	C16.083235,98.750801 18.407940,103.225883 25.881317,105.572266 
z"/>
<path fill="#040404" opacity="1.000000" stroke="none" 
	d="
M131.000000,64.750000 
	C116.436714,72.917274 101.873428,80.834557 86.840752,89.007019 
	C81.068260,82.933182 75.152184,76.708275 68.869385,70.097496 
	C82.236137,62.917175 95.352226,55.871502 109.004890,48.537605 
	C94.905556,40.765896 81.398552,33.282017 67.824219,25.922310 
	C66.883919,25.412500 65.198647,25.376646 64.270790,25.879183 
	C50.690838,33.234287 37.180836,40.718567 23.006775,48.528820 
	C36.658741,55.816307 49.757690,62.808586 63.231548,70.000992 
	C57.095455,76.725494 51.310333,83.065361 45.423687,89.516487 
	C31.087025,81.262558 16.972818,73.136696 2.387091,64.624626 
	C6.883724,58.192509 11.851877,52.146595 17.034624,45.839539 
	C12.845210,41.882919 8.578806,37.964584 4.465369,33.891762 
	C3.418964,32.855686 2.858448,31.328878 2.427578,29.995358 
	C16.772808,22.721313 30.802959,15.550828 44.723549,8.173600 
	C47.312195,6.801745 49.104904,6.927253 51.363388,8.722404 
	C56.001884,12.409307 60.859165,15.820955 65.658363,19.369549 
	C70.446220,15.935459 75.084930,12.977828 79.275146,9.482532 
	C82.457787,6.827713 85.063423,7.030688 88.537003,8.879196 
	C102.144768,16.120716 115.899918,23.085255 129.755096,30.486879 
	C128.786819,32.273975 127.818176,33.886604 126.511650,35.149754 
	C122.656761,38.876648 118.668144,42.465214 114.458588,46.360794 
	C120.286797,52.575802 125.643402,58.287903 131.000000,64.000000 
	C131.000000,64.000000 131.000000,64.500000 131.000000,64.750000 
z"/>
<path fill="#FDFDFD" opacity="1.000000" stroke="none" 
	d="
M129.600311,30.152702 
	C115.899918,23.085255 102.144768,16.120716 88.537003,8.879196 
	C85.063423,7.030688 82.457787,6.827713 79.275146,9.482532 
	C75.084930,12.977828 70.446220,15.935459 65.658363,19.369549 
	C60.859165,15.820955 56.001884,12.409307 51.363388,8.722404 
	C49.104904,6.927253 47.312195,6.801745 44.723549,8.173600 
	C30.802959,15.550828 16.772808,22.721313 2.159085,29.981590 
	C1.358461,30.000013 1.179231,30.000006 1.000000,30.000000 
	C1.000000,20.355877 1.000000,10.711753 1.000000,1.033814 
	C44.209713,1.033814 87.419464,1.033814 131.000000,1.033814 
	C131.000000,10.350962 131.000000,19.706821 130.649017,29.559820 
	C130.065460,30.088875 129.832886,30.120790 129.600311,30.152702 
z"/>
<path fill="#F8F8F8" opacity="1.000000" stroke="none" 
	d="
M129.755096,30.486881 
	C129.832886,30.120790 130.065460,30.088875 130.649017,30.028479 
	C131.000000,41.020893 131.000000,52.041790 131.000000,63.531342 
	C125.643402,58.287903 120.286797,52.575802 114.458588,46.360794 
	C118.668144,42.465214 122.656761,38.876648 126.511650,35.149754 
	C127.818176,33.886604 128.786819,32.273975 129.755096,30.486881 
z"/>
<path fill="#F9F9F9" opacity="1.000000" stroke="none" 
	d="
M1.000000,30.468658 
	C1.179231,30.000006 1.358461,30.000013 1.806185,30.013784 
	C2.858448,31.328878 3.418964,32.855686 4.465369,33.891762 
	C8.578806,37.964584 12.845210,41.882919 17.034624,45.839539 
	C11.851877,52.146595 6.883724,58.192509 2.041801,64.587166 
	C1.973579,64.950592 1.779127,64.965271 1.292337,64.989975 
	C1.000000,53.645771 1.000000,42.291542 1.000000,30.468658 
z"/>
<path fill="#050505" opacity="1.000000" stroke="none" 
	d="
M107.245087,84.198936 
	C109.722244,82.878052 111.864685,81.730873 114.749855,80.185989 
	C114.749855,87.049561 114.847038,93.121803 114.652107,99.184654 
	C114.620415,100.170395 113.502708,101.497238 112.536987,102.020447 
	C98.271393,109.749329 83.946609,117.368935 69.187042,125.254227 
	C69.187042,109.652534 69.187042,94.514839 69.187042,78.520828 
	C74.947456,84.589844 80.325027,90.255501 85.813477,96.037987 
	C93.008781,92.059410 99.959587,88.216026 107.245087,84.198936 
z"/>
<path fill="#050505" opacity="1.000000" stroke="none" 
	d="
M25.562244,105.381241 
	C18.407940,103.225883 16.083235,98.750801 17.150948,91.802788 
	C17.716276,88.123985 17.251019,84.286804 17.251019,79.756844 
	C27.307802,85.523346 36.764771,90.945915 46.523533,96.541527 
	C51.829838,90.725433 57.072865,84.978699 62.736694,78.770721 
	C62.736694,94.381744 62.736694,109.526070 62.736694,125.167763 
	C50.411667,118.614716 38.146492,112.093491 25.562244,105.381241 
z"/>
</svg>